<svg width="100" height="94" viewBox="0 0 100 94" fill="none" xmlns="http://www.w3.org/2000/svg">
<path d="M96.5 46.75C96.5 70.2634 75.9248 89.75 50 89.75C24.0752 89.75 3.5 70.2634 3.5 46.75C3.5 23.2366 24.0752 3.75 50 3.75C75.9248 3.75 96.5 23.2366 96.5 46.75Z" stroke="#ADADAD" stroke-width="7"/>
<path d="M50.0806 3.64027C57.7364 3.60764 65.0284 7.95473 70.5612 15.7002C76.0879 23.4371 79.6425 34.3255 79.6945 46.5325C79.7466 58.7394 76.2849 69.6577 70.8243 77.4415C65.3577 85.2338 58.103 89.6429 50.4472 89.6755C42.7914 89.7081 35.4994 85.361 29.9666 77.6156C24.4399 69.8787 20.8853 58.9902 20.8332 46.7833C20.7812 34.5763 24.2429 23.658 29.7035 15.8743C35.1701 8.08196 42.4248 3.67289 50.0806 3.64027Z" stroke="#ADADAD" stroke-width="7"/>
<rect x="47" y="2" width="7" height="88" fill="#ADADAD"/>
<path d="M2.98523 35.3773L4.99946 29.2916L96 30.25L98.0552 36.6232L2.98523 35.3773Z" fill="#ADADAD"/>
<path d="M4.50133 64.138L2.52459 57.365L97.16 58.6129L95 65.75L4.50133 64.138Z" fill="#ADADAD"/>
</svg>
